<svg width="128" height="115" viewBox="0 0 128 115" fill="none" xmlns="http://www.w3.org/2000/svg">
<g clip-path="url(#clip0)">
<path d="M126.877 43.941C126.832 43.941 126.787 43.927 126.749 43.9008L64.6447 0.64945C64.4557 0.518441 64.2312 0.448428 64.0012 0.44882C63.7712 0.449212 63.5469 0.519991 63.3583 0.651643L1.70124 43.9003C1.65247 43.9345 1.59211 43.948 1.53344 43.9377C1.47477 43.9274 1.42259 43.8942 1.38838 43.8454C1.35417 43.7966 1.34074 43.7363 1.35104 43.6776C1.36134 43.6189 1.39452 43.5668 1.44329 43.5326L63.1004 0.28388C63.3644 0.099594 63.6785 0.000531227 64.0005 2.13054e-06C64.3224 -0.000526966 64.6368 0.0975021 64.9014 0.28092L127.006 43.5321C127.045 43.5595 127.075 43.5986 127.09 43.6439C127.105 43.6891 127.106 43.7381 127.092 43.7837C127.077 43.8294 127.049 43.8692 127.01 43.8975C126.972 43.9258 126.925 43.941 126.877 43.941L126.877 43.941Z" fill="#3F3D56"/>
<path d="M5.22461 45.4741L64.0624 1.8681L123.347 48.5769L67.094 81.9242L36.5536 74.9628L5.22461 45.4741Z" fill="#E6E6E6"/>
<path d="M39.1312 102.521H10.0639C9.88537 102.522 9.70859 102.487 9.54363 102.419C9.37867 102.35 9.22876 102.25 9.10247 102.124C8.97618 101.998 8.876 101.848 8.80764 101.684C8.73929 101.519 8.7041 101.342 8.7041 101.163C8.7041 100.985 8.73929 100.808 8.80764 100.643C8.876 100.479 8.97618 100.329 9.10247 100.203C9.22876 100.076 9.37867 99.9765 9.54363 99.9083C9.70859 99.8402 9.88537 99.8053 10.0639 99.8055H39.1312C39.3096 99.8053 39.4864 99.8402 39.6514 99.9083C39.8163 99.9765 39.9662 100.076 40.0925 100.203C40.2188 100.329 40.319 100.479 40.3874 100.643C40.4557 100.808 40.4909 100.985 40.4909 101.163C40.4909 101.342 40.4557 101.519 40.3874 101.684C40.319 101.848 40.2188 101.998 40.0925 102.124C39.9662 102.25 39.8163 102.35 39.6514 102.419C39.4864 102.487 39.3096 102.522 39.1312 102.521Z" fill="#6C2FFC"/>
<path d="M20.4926 96.6829H10.0639C9.88537 96.6832 9.70859 96.6482 9.54363 96.5801C9.37867 96.5119 9.22876 96.4119 9.10247 96.2858C8.97618 96.1597 8.876 96.0099 8.80764 95.845C8.73929 95.6801 8.7041 95.5034 8.7041 95.3249C8.7041 95.1464 8.73929 94.9697 8.80764 94.8048C8.876 94.64 8.97618 94.4902 9.10247 94.3641C9.22876 94.2379 9.37867 94.1379 9.54363 94.0698C9.70859 94.0016 9.88537 93.9667 10.0639 93.9669H20.4926C20.671 93.9667 20.8478 94.0016 21.0128 94.0698C21.1777 94.1379 21.3277 94.2379 21.4539 94.3641C21.5802 94.4902 21.6804 94.64 21.7488 94.8048C21.8171 94.9697 21.8523 95.1464 21.8523 95.3249C21.8523 95.5034 21.8171 95.6801 21.7488 95.845C21.6804 96.0099 21.5802 96.1597 21.4539 96.2858C21.3277 96.4119 21.1777 96.5119 21.0128 96.5801C20.8478 96.6482 20.671 96.6832 20.4926 96.6829Z" fill="#6C2FFC"/>
<path d="M64.8894 69.7621C64.6684 69.7624 64.4496 69.7195 64.2451 69.6359L27.958 54.5793V7.44974C27.9585 7.03298 28.1243 6.63344 28.4189 6.33875C28.7136 6.04406 29.1132 5.87829 29.5299 5.87781H99.144C99.5607 5.87829 99.9603 6.04406 100.255 6.33875C100.55 6.63344 100.715 7.03298 100.716 7.44974V54.6122L100.648 54.6414L65.5532 69.6286C65.343 69.7169 65.1173 69.7623 64.8894 69.7621Z" fill="white"/>
<path d="M64.8893 69.8743C64.6538 69.8745 64.4204 69.8289 64.2023 69.7398L27.8457 54.6543V7.44971C27.8462 7.00319 28.0238 6.5751 28.3396 6.25936C28.6553 5.94361 29.0834 5.76601 29.5299 5.7655H99.1439C99.5905 5.76601 100.019 5.94361 100.334 6.25936C100.65 6.5751 100.828 7.00319 100.828 7.44971V54.6863L65.5972 69.7317C65.3731 69.826 65.1325 69.8745 64.8893 69.8743ZM28.2948 54.3543L64.3735 69.3246C64.7101 69.4611 65.0869 69.4589 65.4218 69.3183L100.379 54.3898V7.44971C100.379 7.12227 100.248 6.80834 100.017 6.5768C99.7853 6.34526 99.4714 6.21501 99.144 6.21463H29.5299C29.2025 6.21501 28.8886 6.34526 28.657 6.5768C28.4255 6.80834 28.2952 7.12227 28.2948 7.44971L28.2948 54.3543Z" fill="#3F3D56"/>
<path d="M126.428 43.4919H126.383L100.604 54.4999L65.3317 69.5612C65.1939 69.6192 65.046 69.6494 64.8965 69.6502C64.7469 69.651 64.5987 69.6223 64.4603 69.5657L28.0702 54.4684L1.65724 43.5099L1.61689 43.4919H1.57193C1.15517 43.4923 0.755611 43.6581 0.460917 43.9528C0.166223 44.2475 0.000462428 44.6471 0 45.0638V113.33C0.000463021 113.747 0.166223 114.147 0.460917 114.441C0.755611 114.736 1.15517 114.902 1.57193 114.902H126.428C126.845 114.902 127.244 114.736 127.539 114.441C127.834 114.147 128 113.747 128 113.33V45.0638C128 44.6471 127.834 44.2475 127.539 43.9528C127.244 43.6581 126.845 43.4923 126.428 43.4919ZM127.551 113.33C127.551 113.628 127.432 113.914 127.222 114.124C127.011 114.335 126.726 114.453 126.428 114.453H1.57193C1.27418 114.453 0.98866 114.335 0.778118 114.124C0.567577 113.914 0.449242 113.628 0.449123 113.33V45.0638C0.44953 44.7735 0.562158 44.4945 0.763459 44.2852C0.964761 44.076 1.23915 43.9527 1.52928 43.941L28.0702 54.9535L64.2875 69.9811C64.6795 70.1407 65.1188 70.1382 65.5091 69.9744L100.604 54.9872L126.473 43.941C126.763 43.9535 127.036 44.0772 127.237 44.2863C127.438 44.4955 127.55 44.7739 127.551 45.0638V113.33Z" fill="#3F3D56"/>
<path d="M64.5267 56.3979C63.1871 56.4004 61.883 55.9672 60.8112 55.1637L60.7447 55.1138L46.7521 44.4005C46.104 43.904 45.5602 43.2847 45.1515 42.578C44.7428 41.8713 44.4773 41.091 44.3702 40.2817C44.263 39.4723 44.3164 38.6499 44.5271 37.8611C44.7378 37.0724 45.1019 36.333 45.5984 35.6849C46.0949 35.0369 46.7142 34.493 47.4209 34.0843C48.1276 33.6756 48.9079 33.4102 49.7172 33.303C50.5266 33.1959 51.349 33.2492 52.1378 33.46C52.9265 33.6707 53.6659 34.0347 54.314 34.5312L63.3773 41.4809L84.7956 13.5484C85.2923 12.9006 85.9118 12.3569 86.6186 11.9485C87.3255 11.54 88.1059 11.2748 88.9152 11.168C89.7246 11.0611 90.5471 11.1148 91.3357 11.3258C92.1243 11.5368 92.8637 11.9011 93.5115 12.3979L93.3783 12.5787L93.515 12.4005C94.8218 13.4049 95.6768 14.8866 95.8925 16.5206C96.1082 18.1546 95.6669 19.8075 94.6655 21.1165L69.4726 53.9718C68.8899 54.7289 68.1406 55.3416 67.2829 55.7623C66.4252 56.1831 65.4821 56.4005 64.5267 56.3979Z" fill="#6C2FFC"/>
</g>
<defs>
<clipPath id="clip0">
<rect width="128" height="114.902" fill="white"/>
</clipPath>
</defs>
</svg>
